<svg xmlns="http://www.w3.org/2000/svg" viewBox="0 0 23.21 22.92"><defs><style>.cls-1{fill:#22205f;}</style></defs><title>cart</title><g id="Layer_2" data-name="Layer 2"><g id="Header"><path class="cls-1" d="M9.26,16.88a3,3,0,1,0,3,3A3,3,0,0,0,9.26,16.88Zm0,4.39a1.37,1.37,0,1,1,1.37-1.37A1.37,1.37,0,0,1,9.26,21.27Z"/><path class="cls-1" d="M20.2,16.88a3,3,0,1,0,3,3A3,3,0,0,0,20.2,16.88Zm0,4.39a1.37,1.37,0,1,1,1.36-1.37A1.37,1.37,0,0,1,20.2,21.27Z"/><path class="cls-1" d="M22.48,5.53,6.41,3.62V2.29a.83.83,0,0,0-.59-.79L1.07,0A.82.82,0,0,0,0,.58a.83.83,0,0,0,.54,1L4.75,2.9v9.56A2.94,2.94,0,0,0,7.61,15.4H19.68a3.71,3.71,0,0,0,3.53-3.83V6.35A.82.82,0,0,0,22.48,5.53Zm-.92,6a2,2,0,0,1-1.88,2.17H7.61a1.32,1.32,0,0,1-1.2-1.28V5.29l15.15,1.8Z"/></g></g></svg>