<svg xmlns="http://www.w3.org/2000/svg" viewBox="0 0 28.49 18.69"><defs><style>.cls-1{fill:#22205f;}</style></defs><title>delivery</title><g id="Layer_2" data-name="Layer 2"><g id="Header"><path class="cls-1" d="M26.51,8.38H24.92c-.61-1.56-1.05-2.71-1.35-3.6a2.57,2.57,0,0,0-2.35-1.73H18.27V2a2,2,0,0,0-2-2H2A2,2,0,0,0,0,2v13.4a.8.8,0,0,0,.8.8H3.67a3.29,3.29,0,0,0,6.37,0h8.63a3.28,3.28,0,0,0,6.36,0h2.66a.8.8,0,0,0,.8-.8V10.18A1.88,1.88,0,0,0,26.51,8.38ZM2,1.6H16.26a.41.41,0,0,1,.41.41v9.37a.8.8,0,0,0,1.6,0V4.65H21.2a.93.93,0,0,1,.86.66c.35,1,.85,2.32,1.57,4.16a.79.79,0,0,0,.74.51h2.14c.19,0,.39.08.39.2v4.43H25a3.28,3.28,0,0,0-6.36,0H10a3.28,3.28,0,0,0-6.37,0H1.6V2A.41.41,0,0,1,2,1.6ZM6.85,17.1a1.69,1.69,0,1,1,1.69-1.69A1.69,1.69,0,0,1,6.85,17.1Zm15,0a1.69,1.69,0,1,1,1.69-1.69A1.69,1.69,0,0,1,21.85,17.1Z"/></g></g></svg>