<svg xmlns="http://www.w3.org/2000/svg" viewBox="0 0 26.93 22.15"><defs><style>.cls-1{fill:#22205f;}</style></defs><title>services</title><g id="Layer_2" data-name="Layer 2"><g id="Header"><path class="cls-1" d="M17.42,10.51a9,9,0,0,0,0-3.39A8.79,8.79,0,0,0,4,1.41a.79.79,0,0,0-.34.29v0a.79.79,0,0,0,.12,1A1.07,1.07,0,0,0,4,2.85L9.4,6.49,6.88,10.22,1.4,6.51a.81.81,0,0,0-.74-.08A.8.8,0,0,0,.19,7,8.79,8.79,0,0,0,13.6,16.16l8,5.41a3.46,3.46,0,0,0,2.56.52,3.41,3.41,0,0,0,2.7-4,3.35,3.35,0,0,0-1.44-2.17Zm-7.25,5.38a7.23,7.23,0,0,1-8.46-5.72,7,7,0,0,1-.13-1.64L6.66,12a.81.81,0,0,0,1.09-.22l3.4-5a.77.77,0,0,0,.12-.59.76.76,0,0,0-.33-.5L5.86,2.2a7.07,7.07,0,0,1,1.56-.49,7.22,7.22,0,1,1,2.75,14.18ZM25,19.77a1.83,1.83,0,0,1-2.55.49l-7.6-5.13a8.78,8.78,0,0,0,2.05-3.05l7.61,5.14a1.86,1.86,0,0,1,.78,1.17A1.82,1.82,0,0,1,25,19.77Z"/></g></g></svg>